<svg class="main-svg" xmlns="http://www.w3.org/2000/svg" xmlns:xlink="http://www.w3.org/1999/xlink" width="900" height="380" style="" viewBox="0 0 900 380"><rect x="0" y="0" width="900" height="380" style="fill: rgb(255, 255, 255); fill-opacity: 1;"/><defs id="defs-6d4b74"><g class="clips"><clipPath id="clip6d4b74xyplot" class="plotclip"><rect width="810" height="270"/></clipPath><clipPath class="axesclip" id="clip6d4b74x"><rect x="60" y="0" width="810" height="380"/></clipPath><clipPath class="axesclip" id="clip6d4b74y"><rect x="0" y="60" width="900" height="270"/></clipPath><clipPath class="axesclip" id="clip6d4b74xy"><rect x="60" y="60" width="810" height="270"/></clipPath></g><g class="gradients"/><g class="patterns"/></defs><g class="bglayer"><rect class="bg" x="60" y="60" width="810" height="270" style="fill: rgb(251, 251, 252); fill-opacity: 1; stroke-width: 0;"/></g><g class="layer-below"><g class="imagelayer"/><g class="shapelayer"/></g><g class="cartesianlayer"><g class="subplot xy"><g class="layer-subplot"><g class="shapelayer"/><g class="imagelayer"/></g><g class="minor-gridlayer"><g class="x"/><g class="y"/></g><g class="gridlayer"><g class="x"><path class="xgrid crisp" transform="translate(168,0)" d="M0,60v270" style="stroke: rgb(236, 238, 241); stroke-opacity: 1; stroke-width: 1px;"/><path class="xgrid crisp" transform="translate(303,0)" d="M0,60v270" style="stroke: rgb(236, 238, 241); stroke-opacity: 1; stroke-width: 1px;"/><path class="xgrid crisp" transform="translate(438,0)" d="M0,60v270" style="stroke: rgb(236, 238, 241); stroke-opacity: 1; stroke-width: 1px;"/><path class="xgrid crisp" transform="translate(573,0)" d="M0,60v270" style="stroke: rgb(236, 238, 241); stroke-opacity: 1; stroke-width: 1px;"/><path class="xgrid crisp" transform="translate(708,0)" d="M0,60v270" style="stroke: rgb(236, 238, 241); stroke-opacity: 1; stroke-width: 1px;"/><path class="xgrid crisp" transform="translate(843,0)" d="M0,60v270" style="stroke: rgb(236, 238, 241); stroke-opacity: 1; stroke-width: 1px;"/></g><g class="y"><path class="ygrid crisp" transform="translate(0,309.63)" d="M60,0h810" style="stroke: rgb(255, 255, 255); stroke-opacity: 1; stroke-width: 1px;"/><path class="ygrid crisp" transform="translate(0,252.31)" d="M60,0h810" style="stroke: rgb(255, 255, 255); stroke-opacity: 1; stroke-width: 1px;"/><path class="ygrid crisp" transform="translate(0,195)" d="M60,0h810" style="stroke: rgb(255, 255, 255); stroke-opacity: 1; stroke-width: 1px;"/><path class="ygrid crisp" transform="translate(0,137.69)" d="M60,0h810" style="stroke: rgb(255, 255, 255); stroke-opacity: 1; stroke-width: 1px;"/><path class="ygrid crisp" transform="translate(0,80.38)" d="M60,0h810" style="stroke: rgb(255, 255, 255); stroke-opacity: 1; stroke-width: 1px;"/></g></g><g class="zerolinelayer"/><g class="layer-between"><g class="shapelayer"/><g class="imagelayer"/></g><path class="xlines-below"/><path class="ylines-below"/><g class="overlines-below"/><g class="xaxislayer-below"/><g class="yaxislayer-below"/><g class="overaxes-below"/><g class="overplot"><g class="xy" transform="translate(60,60)" clip-path="url(#clip6d4b74xyplot)"><g class="scatterlayer mlayer"><g class="trace scatter trace7cf3a2" style="stroke-miterlimit: 2; opacity: 1;"><g class="fills"/><g class="errorbars"/><g class="lines"/><g class="points"><path class="point plotly-customdata" transform="translate(731.03,20.38)" d="M5.5,0A5.5,5.5 0 1,1 0,-5.5A5.5,5.5 0 0,1 5.5,0Z" style="opacity: 0.85; stroke-width: 1px; fill: rgb(0, 114, 178); fill-opacity: 1; stroke: rgb(251, 251, 252); stroke-opacity: 1;"/><path class="point plotly-customdata" transform="translate(714.15,20.38)" d="M5.5,0A5.5,5.5 0 1,1 0,-5.5A5.5,5.5 0 0,1 5.5,0Z" style="opacity: 0.85; stroke-width: 1px; fill: rgb(0, 114, 178); fill-opacity: 1; stroke: rgb(251, 251, 252); stroke-opacity: 1;"/><path class="point plotly-customdata" transform="translate(702.94,20.38)" d="M5.5,0A5.5,5.5 0 1,1 0,-5.5A5.5,5.5 0 0,1 5.5,0Z" style="opacity: 0.85; stroke-width: 1px; fill: rgb(0, 114, 178); fill-opacity: 1; stroke: rgb(251, 251, 252); stroke-opacity: 1;"/><path class="point plotly-customdata" transform="translate(712.12,20.38)" d="M5.5,0A5.5,5.5 0 1,1 0,-5.5A5.5,5.5 0 0,1 5.5,0Z" style="opacity: 0.85; stroke-width: 1px; fill: rgb(0, 114, 178); fill-opacity: 1; stroke: rgb(251, 251, 252); stroke-opacity: 1;"/><path class="point plotly-customdata" transform="translate(774.23,20.38)" d="M5.5,0A5.5,5.5 0 1,1 0,-5.5A5.5,5.5 0 0,1 5.5,0Z" style="opacity: 0.85; stroke-width: 1px; fill: rgb(0, 114, 178); fill-opacity: 1; stroke: rgb(251, 251, 252); stroke-opacity: 1;"/></g><g class="text"><g class="textpoint" transform="translate(0,-10)"><text x="731.03" y="20.38" text-anchor="middle" style="font-family: Inter, 'SF Pro Text', -apple-system, 'Segoe UI', Roboto, sans-serif; font-size: 8.5px; fill: rgb(107, 114, 128); fill-opacity: 1; white-space: pre;">1.1.1</text></g><g class="textpoint" transform="translate(0,-10)"><text x="714.15" y="20.38" text-anchor="middle" style="font-family: Inter, 'SF Pro Text', -apple-system, 'Segoe UI', Roboto, sans-serif; font-size: 8.5px; fill: rgb(107, 114, 128); fill-opacity: 1; white-space: pre;">1.1.2</text></g><g class="textpoint" transform="translate(0,-10)"><text x="702.94" y="20.38" text-anchor="middle" style="font-family: Inter, 'SF Pro Text', -apple-system, 'Segoe UI', Roboto, sans-serif; font-size: 8.5px; fill: rgb(107, 114, 128); fill-opacity: 1; white-space: pre;">1.1.3</text></g><g class="textpoint" transform="translate(0,-10)"><text x="712.12" y="20.38" text-anchor="middle" style="font-family: Inter, 'SF Pro Text', -apple-system, 'Segoe UI', Roboto, sans-serif; font-size: 8.5px; fill: rgb(107, 114, 128); fill-opacity: 1; white-space: pre;">1.2</text></g><g class="textpoint" transform="translate(0,-10)"><text x="774.23" y="20.38" text-anchor="middle" style="font-family: Inter, 'SF Pro Text', -apple-system, 'Segoe UI', Roboto, sans-serif; font-size: 8.5px; fill: rgb(107, 114, 128); fill-opacity: 1; white-space: pre;">1.3</text></g></g></g><g class="trace scatter traceb98e1f" style="stroke-miterlimit: 2; opacity: 1;"><g class="fills"/><g class="errorbars"/><g class="lines"/><g class="points"><path class="point plotly-customdata" transform="translate(709.29,77.69)" d="M5.5,0A5.5,5.5 0 1,1 0,-5.5A5.5,5.5 0 0,1 5.5,0Z" style="opacity: 0.85; stroke-width: 1px; fill: rgb(230, 159, 0); fill-opacity: 1; stroke: rgb(251, 251, 252); stroke-opacity: 1;"/><path class="point plotly-customdata" transform="translate(686.2,77.69)" d="M5.5,0A5.5,5.5 0 1,1 0,-5.5A5.5,5.5 0 0,1 5.5,0Z" style="opacity: 0.85; stroke-width: 1px; fill: rgb(230, 159, 0); fill-opacity: 1; stroke: rgb(251, 251, 252); stroke-opacity: 1;"/><path class="point plotly-customdata" transform="translate(688.09,77.69)" d="M5.5,0A5.5,5.5 0 1,1 0,-5.5A5.5,5.5 0 0,1 5.5,0Z" style="opacity: 0.85; stroke-width: 1px; fill: rgb(230, 159, 0); fill-opacity: 1; stroke: rgb(251, 251, 252); stroke-opacity: 1;"/><path class="point plotly-customdata" transform="translate(657.99,77.69)" d="M5.5,0A5.5,5.5 0 1,1 0,-5.5A5.5,5.5 0 0,1 5.5,0Z" style="opacity: 0.85; stroke-width: 1px; fill: rgb(230, 159, 0); fill-opacity: 1; stroke: rgb(251, 251, 252); stroke-opacity: 1;"/><path class="point plotly-customdata" transform="translate(721.98,77.69)" d="M5.5,0A5.5,5.5 0 1,1 0,-5.5A5.5,5.5 0 0,1 5.5,0Z" style="opacity: 0.85; stroke-width: 1px; fill: rgb(230, 159, 0); fill-opacity: 1; stroke: rgb(251, 251, 252); stroke-opacity: 1;"/><path class="point plotly-customdata" transform="translate(717.93,77.69)" d="M5.5,0A5.5,5.5 0 1,1 0,-5.5A5.5,5.5 0 0,1 5.5,0Z" style="opacity: 0.85; stroke-width: 1px; fill: rgb(230, 159, 0); fill-opacity: 1; stroke: rgb(251, 251, 252); stroke-opacity: 1;"/><path class="point plotly-customdata" transform="translate(675,77.69)" d="M5.5,0A5.5,5.5 0 1,1 0,-5.5A5.5,5.5 0 0,1 5.5,0Z" style="opacity: 0.85; stroke-width: 1px; fill: rgb(230, 159, 0); fill-opacity: 1; stroke: rgb(251, 251, 252); stroke-opacity: 1;"/></g><g class="text"><g class="textpoint" transform="translate(0,-10)"><text x="709.29" y="77.69" text-anchor="middle" style="font-family: Inter, 'SF Pro Text', -apple-system, 'Segoe UI', Roboto, sans-serif; font-size: 8.5px; fill: rgb(107, 114, 128); fill-opacity: 1; white-space: pre;">2.3.1</text></g><g class="textpoint" transform="translate(0,-10)"><text x="686.2" y="77.69" text-anchor="middle" style="font-family: Inter, 'SF Pro Text', -apple-system, 'Segoe UI', Roboto, sans-serif; font-size: 8.5px; fill: rgb(107, 114, 128); fill-opacity: 1; white-space: pre;">2.4.1</text></g><g class="textpoint" transform="translate(0,-10)"><text x="688.09" y="77.69" text-anchor="middle" style="font-family: Inter, 'SF Pro Text', -apple-system, 'Segoe UI', Roboto, sans-serif; font-size: 8.5px; fill: rgb(107, 114, 128); fill-opacity: 1; white-space: pre;">2.1.1</text></g><g class="textpoint" transform="translate(0,-10)"><text x="657.99" y="77.69" text-anchor="middle" style="font-family: Inter, 'SF Pro Text', -apple-system, 'Segoe UI', Roboto, sans-serif; font-size: 8.5px; fill: rgb(107, 114, 128); fill-opacity: 1; white-space: pre;">2.2.2</text></g><g class="textpoint" transform="translate(0,-10)"><text x="721.98" y="77.69" text-anchor="middle" style="font-family: Inter, 'SF Pro Text', -apple-system, 'Segoe UI', Roboto, sans-serif; font-size: 8.5px; fill: rgb(107, 114, 128); fill-opacity: 1; white-space: pre;">2.4.2</text></g><g class="textpoint" transform="translate(0,-10)"><text x="717.93" y="77.69" text-anchor="middle" style="font-family: Inter, 'SF Pro Text', -apple-system, 'Segoe UI', Roboto, sans-serif; font-size: 8.5px; fill: rgb(107, 114, 128); fill-opacity: 1; white-space: pre;">2.2.1</text></g><g class="textpoint" transform="translate(0,-10)"><text x="675" y="77.69" text-anchor="middle" style="font-family: Inter, 'SF Pro Text', -apple-system, 'Segoe UI', Roboto, sans-serif; font-size: 8.5px; fill: rgb(107, 114, 128); fill-opacity: 1; white-space: pre;">2.5</text></g></g></g><g class="trace scatter trace83db9a" style="stroke-miterlimit: 2; opacity: 1;"><g class="fills"/><g class="errorbars"/><g class="lines"/><g class="points"><path class="point plotly-customdata" transform="translate(677.7,135)" d="M5.5,0A5.5,5.5 0 1,1 0,-5.5A5.5,5.5 0 0,1 5.5,0Z" style="opacity: 0.85; stroke-width: 1px; fill: rgb(0, 158, 115); fill-opacity: 1; stroke: rgb(251, 251, 252); stroke-opacity: 1;"/><path class="point plotly-customdata" transform="translate(756.94,135)" d="M5.5,0A5.5,5.5 0 1,1 0,-5.5A5.5,5.5 0 0,1 5.5,0Z" style="opacity: 0.85; stroke-width: 1px; fill: rgb(0, 158, 115); fill-opacity: 1; stroke: rgb(251, 251, 252); stroke-opacity: 1;"/><path class="point plotly-customdata" transform="translate(671.49,135)" d="M5.5,0A5.5,5.5 0 1,1 0,-5.5A5.5,5.5 0 0,1 5.5,0Z" style="opacity: 0.85; stroke-width: 1px; fill: rgb(0, 158, 115); fill-opacity: 1; stroke: rgb(251, 251, 252); stroke-opacity: 1;"/><path class="point plotly-customdata" transform="translate(701.59,135)" d="M5.5,0A5.5,5.5 0 1,1 0,-5.5A5.5,5.5 0 0,1 5.5,0Z" style="opacity: 0.85; stroke-width: 1px; fill: rgb(0, 158, 115); fill-opacity: 1; stroke: rgb(251, 251, 252); stroke-opacity: 1;"/><path class="point plotly-customdata" transform="translate(738.18,135)" d="M5.5,0A5.5,5.5 0 1,1 0,-5.5A5.5,5.5 0 0,1 5.5,0Z" style="opacity: 0.85; stroke-width: 1px; fill: rgb(0, 158, 115); fill-opacity: 1; stroke: rgb(251, 251, 252); stroke-opacity: 1;"/></g><g class="text"><g class="textpoint" transform="translate(0,-10)"><text x="677.7" y="135" text-anchor="middle" style="font-family: Inter, 'SF Pro Text', -apple-system, 'Segoe UI', Roboto, sans-serif; font-size: 8.5px; fill: rgb(107, 114, 128); fill-opacity: 1; white-space: pre;">3.2</text></g><g class="textpoint" transform="translate(0,-10)"><text x="756.94" y="135" text-anchor="middle" style="font-family: Inter, 'SF Pro Text', -apple-system, 'Segoe UI', Roboto, sans-serif; font-size: 8.5px; fill: rgb(107, 114, 128); fill-opacity: 1; white-space: pre;">3.1</text></g><g class="textpoint" transform="translate(0,-10)"><text x="671.49" y="135" text-anchor="middle" style="font-family: Inter, 'SF Pro Text', -apple-system, 'Segoe UI', Roboto, sans-serif; font-size: 8.5px; fill: rgb(107, 114, 128); fill-opacity: 1; white-space: pre;">3.3</text></g><g class="textpoint" transform="translate(0,-10)"><text x="701.59" y="135" text-anchor="middle" style="font-family: Inter, 'SF Pro Text', -apple-system, 'Segoe UI', Roboto, sans-serif; font-size: 8.5px; fill: rgb(107, 114, 128); fill-opacity: 1; white-space: pre;">3.4</text></g><g class="textpoint" transform="translate(0,-10)"><text x="738.18" y="135" text-anchor="middle" style="font-family: Inter, 'SF Pro Text', -apple-system, 'Segoe UI', Roboto, sans-serif; font-size: 8.5px; fill: rgb(107, 114, 128); fill-opacity: 1; white-space: pre;">3.5</text></g></g></g><g class="trace scatter trace20d907" style="stroke-miterlimit: 2; opacity: 1;"><g class="fills"/><g class="errorbars"/><g class="lines"/><g class="points"><path class="point plotly-customdata" transform="translate(693.49,192.31)" d="M5.5,0A5.5,5.5 0 1,1 0,-5.5A5.5,5.5 0 0,1 5.5,0Z" style="opacity: 0.85; stroke-width: 1px; fill: rgb(123, 104, 182); fill-opacity: 1; stroke: rgb(251, 251, 252); stroke-opacity: 1;"/><path class="point plotly-customdata" transform="translate(668.92,192.31)" d="M5.5,0A5.5,5.5 0 1,1 0,-5.5A5.5,5.5 0 0,1 5.5,0Z" style="opacity: 0.85; stroke-width: 1px; fill: rgb(123, 104, 182); fill-opacity: 1; stroke: rgb(251, 251, 252); stroke-opacity: 1;"/><path class="point plotly-customdata" transform="translate(641.52,192.31)" d="M5.5,0A5.5,5.5 0 1,1 0,-5.5A5.5,5.5 0 0,1 5.5,0Z" style="opacity: 0.85; stroke-width: 1px; fill: rgb(123, 104, 182); fill-opacity: 1; stroke: rgb(251, 251, 252); stroke-opacity: 1;"/><path class="point plotly-customdata" transform="translate(634.5,192.31)" d="M5.5,0A5.5,5.5 0 1,1 0,-5.5A5.5,5.5 0 0,1 5.5,0Z" style="opacity: 0.85; stroke-width: 1px; fill: rgb(123, 104, 182); fill-opacity: 1; stroke: rgb(251, 251, 252); stroke-opacity: 1;"/></g><g class="text"><g class="textpoint" transform="translate(0,-10)"><text x="693.49" y="192.31" text-anchor="middle" style="font-family: Inter, 'SF Pro Text', -apple-system, 'Segoe UI', Roboto, sans-serif; font-size: 8.5px; fill: rgb(107, 114, 128); fill-opacity: 1; white-space: pre;">4.1</text></g><g class="textpoint" transform="translate(0,-10)"><text x="668.92" y="192.31" text-anchor="middle" style="font-family: Inter, 'SF Pro Text', -apple-system, 'Segoe UI', Roboto, sans-serif; font-size: 8.5px; fill: rgb(107, 114, 128); fill-opacity: 1; white-space: pre;">4.2</text></g><g class="textpoint" transform="translate(0,-10)"><text x="641.52" y="192.31" text-anchor="middle" style="font-family: Inter, 'SF Pro Text', -apple-system, 'Segoe UI', Roboto, sans-serif; font-size: 8.5px; fill: rgb(107, 114, 128); fill-opacity: 1; white-space: pre;">4.4</text></g><g class="textpoint" transform="translate(0,-10)"><text x="634.5" y="192.31" text-anchor="middle" style="font-family: Inter, 'SF Pro Text', -apple-system, 'Segoe UI', Roboto, sans-serif; font-size: 8.5px; fill: rgb(107, 114, 128); fill-opacity: 1; white-space: pre;">4.3</text></g></g></g><g class="trace scatter trace0a2b9d" style="stroke-miterlimit: 2; opacity: 1;"><g class="fills"/><g class="errorbars"/><g class="lines"/><g class="points"><path class="point plotly-customdata" transform="translate(662.85,249.63)" d="M5.5,0A5.5,5.5 0 1,1 0,-5.5A5.5,5.5 0 0,1 5.5,0Z" style="opacity: 0.85; stroke-width: 1px; fill: rgb(86, 180, 233); fill-opacity: 1; stroke: rgb(251, 251, 252); stroke-opacity: 1;"/><path class="point plotly-customdata" transform="translate(687.01,249.63)" d="M5.5,0A5.5,5.5 0 1,1 0,-5.5A5.5,5.5 0 0,1 5.5,0Z" style="opacity: 0.85; stroke-width: 1px; fill: rgb(86, 180, 233); fill-opacity: 1; stroke: rgb(251, 251, 252); stroke-opacity: 1;"/><path class="point plotly-customdata" transform="translate(765.32,249.63)" d="M5.5,0A5.5,5.5 0 1,1 0,-5.5A5.5,5.5 0 0,1 5.5,0Z" style="opacity: 0.85; stroke-width: 1px; fill: rgb(86, 180, 233); fill-opacity: 1; stroke: rgb(251, 251, 252); stroke-opacity: 1;"/><path class="point plotly-customdata" transform="translate(726.71,249.63)" d="M5.5,0A5.5,5.5 0 1,1 0,-5.5A5.5,5.5 0 0,1 5.5,0Z" style="opacity: 0.85; stroke-width: 1px; fill: rgb(86, 180, 233); fill-opacity: 1; stroke: rgb(251, 251, 252); stroke-opacity: 1;"/><path class="point plotly-customdata" transform="translate(662.44,249.63)" d="M5.5,0A5.5,5.5 0 1,1 0,-5.5A5.5,5.5 0 0,1 5.5,0Z" style="opacity: 0.85; stroke-width: 1px; fill: rgb(86, 180, 233); fill-opacity: 1; stroke: rgb(251, 251, 252); stroke-opacity: 1;"/><path class="point plotly-customdata" transform="translate(631.93,249.63)" d="M5.5,0A5.5,5.5 0 1,1 0,-5.5A5.5,5.5 0 0,1 5.5,0Z" style="opacity: 0.85; stroke-width: 1px; fill: rgb(86, 180, 233); fill-opacity: 1; stroke: rgb(251, 251, 252); stroke-opacity: 1;"/></g><g class="text"><g class="textpoint" transform="translate(0,-10)"><text x="662.85" y="249.63" text-anchor="middle" style="font-family: Inter, 'SF Pro Text', -apple-system, 'Segoe UI', Roboto, sans-serif; font-size: 8.5px; fill: rgb(107, 114, 128); fill-opacity: 1; white-space: pre;">5.1</text></g><g class="textpoint" transform="translate(0,-10)"><text x="687.01" y="249.63" text-anchor="middle" style="font-family: Inter, 'SF Pro Text', -apple-system, 'Segoe UI', Roboto, sans-serif; font-size: 8.5px; fill: rgb(107, 114, 128); fill-opacity: 1; white-space: pre;">5.3</text></g><g class="textpoint" transform="translate(0,-10)"><text x="765.32" y="249.63" text-anchor="middle" style="font-family: Inter, 'SF Pro Text', -apple-system, 'Segoe UI', Roboto, sans-serif; font-size: 8.5px; fill: rgb(107, 114, 128); fill-opacity: 1; white-space: pre;">5.2</text></g><g class="textpoint" transform="translate(0,-10)"><text x="726.71" y="249.63" text-anchor="middle" style="font-family: Inter, 'SF Pro Text', -apple-system, 'Segoe UI', Roboto, sans-serif; font-size: 8.5px; fill: rgb(107, 114, 128); fill-opacity: 1; white-space: pre;">5.4</text></g><g class="textpoint" transform="translate(0,-10)"><text x="662.44" y="249.63" text-anchor="middle" style="font-family: Inter, 'SF Pro Text', -apple-system, 'Segoe UI', Roboto, sans-serif; font-size: 8.5px; fill: rgb(107, 114, 128); fill-opacity: 1; white-space: pre;">5.5</text></g><g class="textpoint" transform="translate(0,-10)"><text x="631.93" y="249.63" text-anchor="middle" style="font-family: Inter, 'SF Pro Text', -apple-system, 'Segoe UI', Roboto, sans-serif; font-size: 8.5px; fill: rgb(107, 114, 128); fill-opacity: 1; white-space: pre;">5.6</text></g></g></g></g></g></g><g class="zerolinelayer-above"/><path class="xlines-above crisp" d="M0,0" style="fill: none;"/><path class="ylines-above crisp" d="M0,0" style="fill: none;"/><g class="overlines-above"/><g class="xaxislayer-above"><g class="xtick"><text text-anchor="middle" x="0" y="343" transform="translate(168,0)" style="font-family: Inter, 'SF Pro Text', -apple-system, 'Segoe UI', Roboto, sans-serif; font-size: 12px; fill: rgb(42, 47, 54); fill-opacity: 1; white-space: pre;">0.5</text></g><g class="xtick"><text text-anchor="middle" x="0" y="343" style="font-family: Inter, 'SF Pro Text', -apple-system, 'Segoe UI', Roboto, sans-serif; font-size: 12px; fill: rgb(42, 47, 54); fill-opacity: 1; white-space: pre;" transform="translate(303,0)">0.6</text></g><g class="xtick"><text text-anchor="middle" x="0" y="343" style="font-family: Inter, 'SF Pro Text', -apple-system, 'Segoe UI', Roboto, sans-serif; font-size: 12px; fill: rgb(42, 47, 54); fill-opacity: 1; white-space: pre;" transform="translate(438,0)">0.7</text></g><g class="xtick"><text text-anchor="middle" x="0" y="343" style="font-family: Inter, 'SF Pro Text', -apple-system, 'Segoe UI', Roboto, sans-serif; font-size: 12px; fill: rgb(42, 47, 54); fill-opacity: 1; white-space: pre;" transform="translate(573,0)">0.8</text></g><g class="xtick"><text text-anchor="middle" x="0" y="343" style="font-family: Inter, 'SF Pro Text', -apple-system, 'Segoe UI', Roboto, sans-serif; font-size: 12px; fill: rgb(42, 47, 54); fill-opacity: 1; white-space: pre;" transform="translate(708,0)">0.9</text></g><g class="xtick"><text text-anchor="middle" x="0" y="343" style="font-family: Inter, 'SF Pro Text', -apple-system, 'Segoe UI', Roboto, sans-serif; font-size: 12px; fill: rgb(42, 47, 54); fill-opacity: 1; white-space: pre;" transform="translate(843,0)">1</text></g></g><g class="yaxislayer-above"><g class="ytick"><text text-anchor="end" x="59" y="4.199999999999999" transform="translate(0,309.63)" style="font-family: Inter, 'SF Pro Text', -apple-system, 'Segoe UI', Roboto, sans-serif; font-size: 12px; fill: rgb(42, 47, 54); fill-opacity: 1; white-space: pre;">D5</text></g><g class="ytick"><text text-anchor="end" x="59" y="4.199999999999999" transform="translate(0,252.31)" style="font-family: Inter, 'SF Pro Text', -apple-system, 'Segoe UI', Roboto, sans-serif; font-size: 12px; fill: rgb(42, 47, 54); fill-opacity: 1; white-space: pre;">D4</text></g><g class="ytick"><text text-anchor="end" x="59" y="4.199999999999999" transform="translate(0,195)" style="font-family: Inter, 'SF Pro Text', -apple-system, 'Segoe UI', Roboto, sans-serif; font-size: 12px; fill: rgb(42, 47, 54); fill-opacity: 1; white-space: pre;">D3</text></g><g class="ytick"><text text-anchor="end" x="59" y="4.199999999999999" transform="translate(0,137.69)" style="font-family: Inter, 'SF Pro Text', -apple-system, 'Segoe UI', Roboto, sans-serif; font-size: 12px; fill: rgb(42, 47, 54); fill-opacity: 1; white-space: pre;">D2</text></g><g class="ytick"><text text-anchor="end" x="59" y="4.199999999999999" transform="translate(0,80.38)" style="font-family: Inter, 'SF Pro Text', -apple-system, 'Segoe UI', Roboto, sans-serif; font-size: 12px; fill: rgb(42, 47, 54); fill-opacity: 1; white-space: pre;">D1</text></g></g><g class="overaxes-above"/></g></g><g class="polarlayer"/><g class="smithlayer"/><g class="ternarylayer"/><g class="geolayer"/><g class="funnelarealayer"/><g class="pielayer"/><g class="iciclelayer"/><g class="treemaplayer"/><g class="sunburstlayer"/><g class="glimages"/><defs id="topdefs-6d4b74"><g class="clips"/></defs><g class="layer-above"><g class="imagelayer"/><g class="shapelayer"><g class="shape-group" data-index="0" clip-path="url(#clip6d4b74x)"><path data-index="0" fill-rule="evenodd" d="M168,330L168,60" style="opacity: 1; stroke: rgb(154, 160, 166); stroke-opacity: 1; fill: rgb(0, 0, 0); fill-opacity: 0; stroke-dasharray: 9px, 9px; stroke-width: 1.2px;"/></g></g></g><g class="infolayer"><g class="g-gtitle"><text class="gtitle" x="9" y="30" text-anchor="start" dy="0em" style="opacity: 1; font-family: Inter, 'SF Pro Text', -apple-system, 'Segoe UI', Roboto, sans-serif; font-size: 13.5px; fill: rgb(42, 47, 54); fill-opacity: 1; white-space: pre;">Per-code AUROC within each dimension (as-coded labels)</text></g><g class="g-xtitle"><text class="xtitle" x="465" y="368.2" text-anchor="middle" style="opacity: 1; font-family: Inter, 'SF Pro Text', -apple-system, 'Segoe UI', Roboto, sans-serif; font-size: 11px; fill: rgb(42, 47, 54); fill-opacity: 1; white-space: pre;">AUROC</text></g><g class="g-ytitle"/></g></svg>